<svg width="50" height="50" viewBox="0 0 50 50" fill="none" xmlns="http://www.w3.org/2000/svg">
<path d="M13 2.88462C12.4091 2.88462 11.8239 2.99653 11.2779 3.21398C10.732 3.43143 10.2359 3.75015 9.81802 4.15194C9.40016 4.55373 9.06869 5.03073 8.84254 5.5557C8.6164 6.08066 8.5 6.64332 8.5 7.21154C8.5 7.77976 8.6164 8.34241 8.84254 8.86738C9.06869 9.39235 9.40016 9.86934 9.81802 10.2711C10.2359 10.6729 10.732 10.9916 11.2779 11.2091C11.8239 11.4265 12.4091 11.5385 13 11.5385C14.1935 11.5385 15.3381 11.0826 16.182 10.2711C17.0259 9.45968 17.5 8.35911 17.5 7.21154C17.5 6.06397 17.0259 4.9634 16.182 4.15194C15.3381 3.34049 14.1935 2.88462 13 2.88462ZM5.5 7.21154C5.5 5.29892 6.29018 3.46464 7.6967 2.11221C9.10322 0.759785 11.0109 0 13 0C14.9891 0 16.8968 0.759785 18.3033 2.11221C19.7098 3.46464 20.5 5.29892 20.5 7.21154C20.5 9.12416 19.7098 10.9584 18.3033 12.3109C16.8968 13.6633 14.9891 14.4231 13 14.4231C11.0109 14.4231 9.10322 13.6633 7.6967 12.3109C6.29018 10.9584 5.5 9.12416 5.5 7.21154ZM0 21.1192C0 19.0135 1.774 17.3077 3.964 17.3077H15.164C14.7847 18.2287 14.5645 19.203 14.512 20.1923H3.964C3.70833 20.1923 3.46313 20.29 3.28235 20.4638C3.10156 20.6376 3 20.8734 3 21.1192V21.875C3 22.2058 3.004 24.2077 4.214 26.1C5.254 27.7231 7.322 29.4827 11.72 29.7673C10.703 30.4027 9.91067 31.3201 9.448 32.3981C5.438 31.6846 3.034 29.7596 1.66 27.6096C-1.19209e-07 25.0192 0 22.3423 0 21.8808V21.1192ZM32.834 17.3077C33.206 18.2077 33.434 19.1788 33.486 20.1923H44.036C44.568 20.1923 45 20.6077 45 21.1192V21.875C45 22.1385 44.996 23.4615 44.386 24.9423C45.28 25.4308 46.116 26.0038 46.882 26.65C47.6104 25.1565 47.9919 23.5284 48 21.8788V21.1192C48 20.1083 47.5824 19.1389 46.839 18.4241C46.0956 17.7093 45.0873 17.3077 44.036 17.3077H32.834ZM31.5 20.6731C31.5 22.1192 31.058 23.4654 30.296 24.5962C28.7228 25.3535 27.3 26.3701 26.092 27.6C24.5808 28.0221 22.9697 27.9764 21.487 27.4694C20.0043 26.9624 18.725 26.0197 17.8302 24.775C16.9355 23.5302 16.4706 22.0463 16.5014 20.5334C16.5323 19.0206 17.0572 17.5553 18.002 16.3452C18.9468 15.1351 20.2635 14.2414 21.7657 13.7906C23.268 13.3398 24.8796 13.3548 26.3725 13.8335C27.8654 14.3121 29.1638 15.2302 30.0841 16.4577C31.0043 17.6852 31.4996 19.1599 31.5 20.6731ZM14.964 30.7692H23.73C23.2259 31.6865 22.8269 32.6537 22.54 33.6538H14.964C14.7083 33.6538 14.4631 33.7515 14.2823 33.9253C14.1016 34.0992 14 34.3349 14 34.5808V35.3365C14 35.6673 14.004 37.6692 15.214 39.5615C16.294 41.2481 18.482 43.0808 23.242 43.2538C23.708 44.2827 24.294 45.2481 24.982 46.1327C24.662 46.1462 24.336 46.1538 24 46.1538C17.788 46.1538 14.4 43.7923 12.66 41.0731C11 38.4788 11 35.8038 11 35.3404V34.5808C11 32.475 12.774 30.7692 14.964 30.7692ZM35 2.88462C34.409 2.88462 33.8239 2.99653 33.2779 3.21398C32.732 3.43143 32.2359 3.75015 31.818 4.15194C31.4002 4.55373 31.0687 5.03073 30.8425 5.5557C30.6164 6.08066 30.5 6.64332 30.5 7.21154C30.5 7.77976 30.6164 8.34241 30.8425 8.86738C31.0687 9.39235 31.4002 9.86934 31.818 10.2711C32.2359 10.6729 32.732 10.9916 33.2779 11.2091C33.8239 11.4265 34.409 11.5385 35 11.5385C36.1935 11.5385 37.3381 11.0826 38.182 10.2711C39.0259 9.45968 39.5 8.35911 39.5 7.21154C39.5 6.06397 39.0259 4.9634 38.182 4.15194C37.3381 3.34049 36.1935 2.88462 35 2.88462ZM27.5 7.21154C27.5 5.29892 28.2902 3.46464 29.6967 2.11221C31.1032 0.759785 33.0109 0 35 0C36.9891 0 38.8968 0.759785 40.3033 2.11221C41.7098 3.46464 42.5 5.29892 42.5 7.21154C42.5 9.12416 41.7098 10.9584 40.3033 12.3109C38.8968 13.6633 36.9891 14.4231 35 14.4231C33.0109 14.4231 31.1032 13.6633 29.6967 12.3109C28.2902 10.9584 27.5 9.12416 27.5 7.21154ZM19.5 20.6731C19.5 21.2413 19.6164 21.804 19.8425 22.3289C20.0687 22.8539 20.4002 23.3309 20.818 23.7327C21.2359 24.1345 21.732 24.4532 22.2779 24.6706C22.8239 24.8881 23.4091 25 24 25C24.5909 25 25.1761 24.8881 25.7221 24.6706C26.268 24.4532 26.7641 24.1345 27.182 23.7327C27.5998 23.3309 27.9313 22.8539 28.1575 22.3289C28.3836 21.804 28.5 21.2413 28.5 20.6731C28.5 19.5255 28.0259 18.4249 27.182 17.6135C26.3381 16.802 25.1935 16.3462 24 16.3462C22.8065 16.3462 21.6619 16.802 20.818 17.6135C19.9741 18.4249 19.5 19.5255 19.5 20.6731ZM50 37.5C50 40.8152 48.6304 43.9946 46.1924 46.3388C43.7544 48.683 40.4478 50 37 50C33.5522 50 30.2456 48.683 27.8076 46.3388C25.3696 43.9946 24 40.8152 24 37.5C24 34.1848 25.3696 31.0054 27.8076 28.6612C30.2456 26.317 33.5522 25 37 25C40.4478 25 43.7544 26.317 46.1924 28.6612C48.6304 31.0054 50 34.1848 50 37.5ZM38 29.8077C38 29.5527 37.8946 29.3081 37.7071 29.1278C37.5196 28.9475 37.2652 28.8462 37 28.8462C36.7348 28.8462 36.4804 28.9475 36.2929 29.1278C36.1054 29.3081 36 29.5527 36 29.8077V36.5385H29C28.7348 36.5385 28.4804 36.6398 28.2929 36.8201C28.1054 37.0004 28 37.245 28 37.5C28 37.755 28.1054 37.9996 28.2929 38.1799C28.4804 38.3602 28.7348 38.4615 29 38.4615H36V45.1923C36 45.4473 36.1054 45.6919 36.2929 45.8722C36.4804 46.0525 36.7348 46.1538 37 46.1538C37.2652 46.1538 37.5196 46.0525 37.7071 45.8722C37.8946 45.6919 38 45.4473 38 45.1923V38.4615H45C45.2652 38.4615 45.5196 38.3602 45.7071 38.1799C45.8946 37.9996 46 37.755 46 37.5C46 37.245 45.8946 37.0004 45.7071 36.8201C45.5196 36.6398 45.2652 36.5385 45 36.5385H38V29.8077Z" fill="url(#paint0_linear_145_1356)"/>
<defs>
<linearGradient id="paint0_linear_145_1356" x1="25" y1="0" x2="25" y2="50" gradientUnits="userSpaceOnUse">
<stop stop-color="#7431FB"/>
<stop offset="0.557292" stop-color="#28002E"/>
<stop offset="1" stop-color="#FA01FF"/>
</linearGradient>
</defs>
</svg>
