<svg width="50" height="50" viewBox="0 0 50 50" fill="none" xmlns="http://www.w3.org/2000/svg">
<g clip-path="url(#clip0_145_1367)">
<path d="M27.6755 6.04175V10.4167H31.9696C32.7327 10.4167 33.4785 10.6817 34.109 11.1742L37.7986 14.0592C37.8878 14.1292 37.9943 14.1667 38.103 14.1667H47.0216C47.4541 14.1667 47.8689 14.3643 48.1747 14.7159C48.4805 15.0676 48.6523 15.5445 48.6523 16.0417C48.6523 16.539 48.4805 17.0159 48.1747 17.3676C47.8689 17.7192 47.4541 17.9167 47.0216 17.9167H43.5907L50.9091 37.1167C51.0559 37.5006 51.0864 37.93 50.9957 38.3361C50.9051 38.7423 50.6985 39.1017 50.409 39.3568C50.1916 39.5417 49.9677 39.7142 49.735 39.8717C49.1835 40.2502 48.6096 40.5835 48.0174 40.8692C46.0508 41.8149 43.9395 42.2986 41.8079 42.2917C39.6771 42.2995 37.5665 41.8166 35.6005 40.8717C35.008 40.5859 34.434 40.2517 33.8829 39.8717C33.6522 39.7182 33.4293 39.5496 33.2154 39.3667L33.2045 39.3568C32.9151 39.1017 32.7085 38.7423 32.6178 38.3361C32.5272 37.93 32.5577 37.5006 32.7045 37.1167L40.0272 17.9167H38.1009C37.3377 17.9167 36.592 17.6517 35.9614 17.1592L32.2718 14.2742C32.1822 14.2037 32.076 14.1662 31.9674 14.1667H27.6755V50.4167H37.4312C37.8637 50.4167 38.2784 50.6143 38.5842 50.9659C38.89 51.3176 39.0618 51.7945 39.0618 52.2917C39.0618 52.789 38.89 53.2659 38.5842 53.6176C38.2784 53.9692 37.8637 54.1667 37.4312 54.1667H14.6586C14.2261 54.1667 13.8113 53.9692 13.5055 53.6176C13.1997 53.2659 13.0279 52.789 13.0279 52.2917C13.0279 51.7945 13.1997 51.3176 13.5055 50.9659C13.8113 50.6143 14.2261 50.4167 14.6586 50.4167H24.4142V14.1667H20.1202C20.0116 14.1667 19.9056 14.2041 19.8158 14.2742L16.1283 17.1592C15.4978 17.6517 14.7521 17.9167 13.9889 17.9167H12.0626L19.3853 37.1167C19.527 37.4897 19.5593 37.9057 19.4774 38.3016C19.3954 38.6976 19.2036 39.0522 18.9309 39.3117C18.757 39.4743 18.583 39.6267 18.2569 39.8692C17.707 40.2787 17.1315 40.6405 16.5349 40.9518C14.5712 41.9775 12.4387 42.5061 10.2819 42.5017C8.12499 42.507 5.99236 41.9783 4.02889 40.9518C3.43236 40.6405 2.85678 40.2787 2.30692 39.8692C2.07441 39.6993 1.85013 39.5148 1.63509 39.3167C1.36458 39.0542 1.17429 38.699 1.09213 38.3031C1.00996 37.9072 1.04023 37.4914 1.17851 37.1167L8.49906 17.9167H5.07034C4.63786 17.9167 4.2231 17.7192 3.91729 17.3676C3.61148 17.0159 3.43968 16.539 3.43968 16.0417C3.43968 15.5445 3.61148 15.0676 3.91729 14.7159C4.2231 14.3643 4.63786 14.1667 5.07034 14.1667H13.9889C14.0976 14.1667 14.2042 14.1292 14.2955 14.0592L17.9808 11.1742C18.6113 10.6792 19.3592 10.4167 20.1224 10.4167H24.4142V6.04175C24.4142 5.54447 24.586 5.06755 24.8918 4.71592C25.1976 4.36429 25.6124 4.16675 26.0449 4.16675C26.4774 4.16675 26.8921 4.36429 27.1979 4.71592C27.5037 5.06755 27.6755 5.54447 27.6755 6.04175ZM4.72246 37.1617C6.43365 38.2092 8.34334 38.7545 10.2819 38.7492C12.2205 38.7545 14.1302 38.2092 15.8413 37.1617L10.2819 22.5867L4.72246 37.1617ZM36.2702 37.1017C36.4485 37.2017 36.6485 37.3092 36.8681 37.4167C38.0204 37.9742 39.7054 38.5417 41.8079 38.5417C43.7246 38.5479 45.6177 38.0556 47.3456 37.1017L41.8079 22.5842L36.2702 37.1017Z" fill="url(#paint0_linear_145_1367)"/>
</g>
<defs>
<linearGradient id="paint0_linear_145_1367" x1="26.0469" y1="4.16675" x2="26.0469" y2="54.1667" gradientUnits="userSpaceOnUse">
<stop stop-color="#7431FB"/>
<stop offset="0.557292" stop-color="#28002E"/>
<stop offset="1" stop-color="#FA01FF"/>
</linearGradient>
<clipPath id="clip0_145_1367">
<rect width="50" height="50" fill="white"/>
</clipPath>
</defs>
</svg>
