<svg width="50" height="50" viewBox="0 0 50 50" fill="none" xmlns="http://www.w3.org/2000/svg">
<path d="M0 2.77778C0 2.04107 0.376274 1.33453 1.04605 0.813592C1.71582 0.292658 2.62423 0 3.57143 0H39.2857C40.2329 0 41.1413 0.292658 41.8111 0.813592C42.4809 1.33453 42.8571 2.04107 42.8571 2.77778V20.8333C42.8571 21.2017 42.669 21.555 42.3341 21.8154C41.9992 22.0759 41.545 22.2222 41.0714 22.2222C40.5978 22.2222 40.1436 22.0759 39.8087 21.8154C39.4739 21.555 39.2857 21.2017 39.2857 20.8333V2.77778H3.57143V41.6667H14.2857V34.7222C14.2857 34.3539 14.4739 34.0006 14.8087 33.7401C15.1436 33.4797 15.5978 33.3333 16.0714 33.3333H21.4286V44.4444H3.57143C2.62423 44.4444 1.71582 44.1518 1.04605 43.6309C0.376274 43.1099 0 42.4034 0 41.6667V2.77778Z" fill="url(#paint0_linear_145_1374)"/>
<path d="M8.92857 11.1111C8.45497 11.1111 8.00077 11.2574 7.66588 11.5179C7.33099 11.7784 7.14286 12.1316 7.14286 12.5V15.2778C7.14286 15.6461 7.33099 15.9994 7.66588 16.2599C8.00077 16.5203 8.45497 16.6667 8.92857 16.6667H12.5C12.9736 16.6667 13.4278 16.5203 13.7627 16.2599C14.0976 15.9994 14.2857 15.6461 14.2857 15.2778V12.5C14.2857 12.1316 14.0976 11.7784 13.7627 11.5179C13.4278 11.2574 12.9736 11.1111 12.5 11.1111H8.92857ZM19.6429 11.1111C19.1693 11.1111 18.7151 11.2574 18.3802 11.5179C18.0453 11.7784 17.8571 12.1316 17.8571 12.5V15.2778C17.8571 15.6461 18.0453 15.9994 18.3802 16.2599C18.7151 16.5203 19.1693 16.6667 19.6429 16.6667H23.2143C23.6879 16.6667 24.1421 16.5203 24.477 16.2599C24.8119 15.9994 25 15.6461 25 15.2778V12.5C25 12.1316 24.8119 11.7784 24.477 11.5179C24.1421 11.2574 23.6879 11.1111 23.2143 11.1111H19.6429ZM30.3571 11.1111C29.8835 11.1111 29.4293 11.2574 29.0944 11.5179C28.7596 11.7784 28.5714 12.1316 28.5714 12.5V15.2778C28.5714 15.6461 28.7596 15.9994 29.0944 16.2599C29.4293 16.5203 29.8835 16.6667 30.3571 16.6667H33.9286C34.4022 16.6667 34.8564 16.5203 35.1913 16.2599C35.5261 15.9994 35.7143 15.6461 35.7143 15.2778V12.5C35.7143 12.1316 35.5261 11.7784 35.1913 11.5179C34.8564 11.2574 34.4022 11.1111 33.9286 11.1111H30.3571ZM8.92857 19.4444C8.45497 19.4444 8.00077 19.5908 7.66588 19.8512C7.33099 20.1117 7.14286 20.465 7.14286 20.8333V23.6111C7.14286 23.9795 7.33099 24.3327 7.66588 24.5932C8.00077 24.8537 8.45497 25 8.92857 25H12.5C12.9736 25 13.4278 24.8537 13.7627 24.5932C14.0976 24.3327 14.2857 23.9795 14.2857 23.6111V20.8333C14.2857 20.465 14.0976 20.1117 13.7627 19.8512C13.4278 19.5908 12.9736 19.4444 12.5 19.4444H8.92857ZM19.6429 19.4444C19.1693 19.4444 18.7151 19.5908 18.3802 19.8512C18.0453 20.1117 17.8571 20.465 17.8571 20.8333V23.6111C17.8571 23.9795 18.0453 24.3327 18.3802 24.5932C18.7151 24.8537 19.1693 25 19.6429 25H23.2143C23.6879 25 24.1421 24.8537 24.477 24.5932C24.8119 24.3327 25 23.9795 25 23.6111V20.8333C25 20.465 24.8119 20.1117 24.477 19.8512C24.1421 19.5908 23.6879 19.4444 23.2143 19.4444H19.6429ZM30.3571 19.4444C29.8835 19.4444 29.4293 19.5908 29.0944 19.8512C28.7596 20.1117 28.5714 20.465 28.5714 20.8333V23.6111C28.5714 23.9795 28.7596 24.3327 29.0944 24.5932C29.4293 24.8537 29.8835 25 30.3571 25H33.9286C34.4022 25 34.8564 24.8537 35.1913 24.5932C35.5261 24.3327 35.7143 23.9795 35.7143 23.6111V20.8333C35.7143 20.465 35.5261 20.1117 35.1913 19.8512C34.8564 19.5908 34.4022 19.4444 33.9286 19.4444H30.3571ZM8.92857 27.7778C8.45497 27.7778 8.00077 27.9241 7.66588 28.1846C7.33099 28.445 7.14286 28.7983 7.14286 29.1667V31.9444C7.14286 32.3128 7.33099 32.6661 7.66588 32.9265C8.00077 33.187 8.45497 33.3333 8.92857 33.3333H12.5C12.9736 33.3333 13.4278 33.187 13.7627 32.9265C14.0976 32.6661 14.2857 32.3128 14.2857 31.9444V29.1667C14.2857 28.7983 14.0976 28.445 13.7627 28.1846C13.4278 27.9241 12.9736 27.7778 12.5 27.7778H8.92857ZM19.6429 27.7778C19.1693 27.7778 18.7151 27.9241 18.3802 28.1846C18.0453 28.445 17.8571 28.7983 17.8571 29.1667V31.9444C17.8571 32.3128 18.0453 32.6661 18.3802 32.9265C18.7151 33.187 19.1693 33.3333 19.6429 33.3333H23.2143C23.6879 33.3333 24.1421 33.187 24.477 32.9265C24.8119 32.6661 25 32.3128 25 31.9444V29.1667C25 28.7983 24.8119 28.445 24.477 28.1846C24.1421 27.9241 23.6879 27.7778 23.2143 27.7778H19.6429ZM35.3071 31.8333C35.95 30.1306 39.05 30.1306 39.6964 31.8333L39.85 32.2444C39.9459 32.4995 40.1141 32.7345 40.3422 32.9323C40.5703 33.1301 40.8525 33.2856 41.1681 33.3874C41.4836 33.4892 41.8245 33.5347 42.1656 33.5205C42.5068 33.5064 42.8395 33.4329 43.1393 33.3056L43.625 33.1C45.6286 32.25 47.8214 33.9556 46.7321 35.5139L46.4643 35.8917C46.3012 36.1248 46.2073 36.3833 46.1895 36.6483C46.1716 36.9133 46.2302 37.178 46.3611 37.4231C46.4919 37.6681 46.6916 37.8873 46.9455 38.0645C47.1995 38.2418 47.5012 38.3725 47.8286 38.4472L48.3607 38.5722C50.5464 39.0722 50.5464 41.4833 48.3607 41.9861L47.825 42.1056C47.4977 42.1808 47.1963 42.3121 46.9428 42.4897C46.6893 42.6674 46.4902 42.887 46.36 43.1324C46.2299 43.3777 46.172 43.6426 46.1906 43.9076C46.2093 44.1727 46.304 44.4311 46.4679 44.6639L46.7321 45.0417C47.8214 46.6 45.6286 48.3055 43.625 47.4583L43.1393 47.25C42.8396 47.1232 42.5072 47.0501 42.1665 47.0362C41.8258 47.0224 41.4854 47.068 41.1703 47.1697C40.8552 47.2715 40.5734 47.4268 40.3456 47.6243C40.1177 47.8218 39.9496 48.0565 39.8536 48.3111L39.6929 48.725C39.05 50.425 35.95 50.425 35.3036 48.725L35.15 48.3083C35.0533 48.0538 34.8845 47.8194 34.656 47.6222C34.4276 47.425 34.1453 47.2701 33.8298 47.1689C33.5144 47.0677 33.1738 47.0227 32.833 47.0372C32.4923 47.0517 32.1601 47.1254 31.8607 47.2528L31.375 47.4583C29.3714 48.3055 27.1786 46.6 28.2679 45.0417L28.5357 44.6639C28.6988 44.4308 28.7927 44.1723 28.8105 43.9073C28.8284 43.6423 28.7698 43.3775 28.6389 43.1325C28.5081 42.8874 28.3084 42.6682 28.0545 42.491C27.8005 42.3138 27.4988 42.183 27.1714 42.1083L26.6429 41.9833C24.4536 41.4833 24.4536 39.0722 26.6429 38.5694L27.1714 38.45C27.4993 38.3754 27.8015 38.2446 28.0558 38.0672C28.3101 37.8898 28.5101 37.6703 28.641 37.4248C28.7718 37.1794 28.8303 36.9143 28.8121 36.649C28.7939 36.3836 28.6994 36.1249 28.5357 35.8917L28.2714 35.5139C27.1786 33.9556 29.3714 32.25 31.375 33.0972L31.8607 33.3056C32.1604 33.4324 32.4928 33.5054 32.8335 33.5193C33.1742 33.5332 33.5146 33.4876 33.8297 33.3858C34.1448 33.2841 34.4266 33.1288 34.6544 32.9312C34.8823 32.7337 35.0504 32.4991 35.1464 32.2444L35.3071 31.8333ZM42.8571 40.2778C42.8571 39.7306 42.7186 39.1888 42.4494 38.6833C42.1801 38.1777 41.7855 37.7184 41.2881 37.3315C40.7906 36.9446 40.2 36.6377 39.5501 36.4283C38.9001 36.2189 38.2035 36.1111 37.5 36.1111C36.7965 36.1111 36.0999 36.2189 35.4499 36.4283C34.7999 36.6377 34.2094 36.9446 33.7119 37.3315C33.2145 37.7184 32.8199 38.1777 32.5506 38.6833C32.2814 39.1888 32.1429 39.7306 32.1429 40.2778C32.1429 41.3828 32.7073 42.4427 33.7119 43.2241C34.7166 44.0055 36.0792 44.4444 37.5 44.4444C38.9208 44.4444 40.2834 44.0055 41.2881 43.2241C42.2927 42.4427 42.8571 41.3828 42.8571 40.2778Z" fill="url(#paint1_linear_145_1374)"/>
<defs>
<linearGradient id="paint0_linear_145_1374" x1="25" y1="0" x2="25" y2="50" gradientUnits="userSpaceOnUse">
<stop stop-color="#7431FB"/>
<stop offset="0.557292" stop-color="#28002E"/>
<stop offset="1" stop-color="#FA01FF"/>
</linearGradient>
<linearGradient id="paint1_linear_145_1374" x1="25" y1="0" x2="25" y2="50" gradientUnits="userSpaceOnUse">
<stop stop-color="#7431FB"/>
<stop offset="0.557292" stop-color="#28002E"/>
<stop offset="1" stop-color="#FA01FF"/>
</linearGradient>
</defs>
</svg>
