<svg width="50" height="50" viewBox="0 0 50 50" fill="none" xmlns="http://www.w3.org/2000/svg">
<g clip-path="url(#clip0_145_1359)">
<path d="M43.75 14.5833C44.281 14.5838 44.7917 14.7872 45.1778 15.1517C45.5639 15.5162 45.7963 16.0144 45.8274 16.5445C45.8585 17.0746 45.6861 17.5965 45.3452 18.0037C45.0044 18.4109 44.521 18.6726 43.9937 18.7353L43.75 18.7499V39.5833C44.281 39.5838 44.7917 39.7872 45.1778 40.1517C45.5639 40.5162 45.7963 41.0144 45.8274 41.5445C45.8585 42.0746 45.6861 42.5965 45.3452 43.0037C45.0044 43.4109 44.521 43.6726 43.9937 43.7353L43.75 43.7499H6.24997C5.71897 43.7493 5.20824 43.546 4.82212 43.1815C4.436 42.817 4.20365 42.3188 4.17253 41.7887C4.14141 41.2586 4.31388 40.7366 4.65469 40.3294C4.9955 39.9222 5.47894 39.6606 6.00622 39.5978L6.24997 39.5833V18.7499C5.71897 18.7493 5.20824 18.546 4.82212 18.1815C4.436 17.817 4.20365 17.3188 4.17253 16.7887C4.14141 16.2586 4.31388 15.7366 4.65469 15.3294C4.9955 14.9222 5.47894 14.6606 6.00622 14.5978L6.24997 14.5833H43.75ZM39.5833 18.7499H10.4166V39.5833H14.5833V24.9999C14.5833 24.4474 14.8028 23.9175 15.1935 23.5268C15.5842 23.1361 16.1141 22.9166 16.6666 22.9166C17.2192 22.9166 17.7491 23.1361 18.1398 23.5268C18.5305 23.9175 18.75 24.4474 18.75 24.9999V39.5833H22.9166V24.9999C22.9166 24.4474 23.1361 23.9175 23.5268 23.5268C23.9175 23.1361 24.4474 22.9166 25 22.9166C25.5525 22.9166 26.0824 23.1361 26.4731 23.5268C26.8638 23.9175 27.0833 24.4474 27.0833 24.9999V39.5833H31.25V24.9999C31.25 24.4474 31.4695 23.9175 31.8602 23.5268C32.2509 23.1361 32.7808 22.9166 33.3333 22.9166C33.8858 22.9166 34.4157 23.1361 34.8064 23.5268C35.1971 23.9175 35.4166 24.4474 35.4166 24.9999V39.5833H39.5833V18.7499ZM37.5 8.33325C38.0525 8.33325 38.5824 8.55275 38.9731 8.94345C39.3638 9.33415 39.5833 9.86405 39.5833 10.4166C39.5833 10.9691 39.3638 11.499 38.9731 11.8897C38.5824 12.2804 38.0525 12.4999 37.5 12.4999H12.5C11.9474 12.4999 11.4175 12.2804 11.0268 11.8897C10.6361 11.499 10.4166 10.9691 10.4166 10.4166C10.4166 9.86405 10.6361 9.33415 11.0268 8.94345C11.4175 8.55275 11.9474 8.33325 12.5 8.33325H37.5Z" fill="url(#paint0_linear_145_1359)"/>
</g>
<defs>
<linearGradient id="paint0_linear_145_1359" x1="25" y1="8.33325" x2="25" y2="43.7499" gradientUnits="userSpaceOnUse">
<stop stop-color="#7431FB"/>
<stop offset="0.557292" stop-color="#28002E"/>
<stop offset="1" stop-color="#FA01FF"/>
</linearGradient>
<clipPath id="clip0_145_1359">
<rect width="50" height="50" fill="white"/>
</clipPath>
</defs>
</svg>
