<svg width="60" height="60" viewBox="0 0 60 60" fill="none" xmlns="http://www.w3.org/2000/svg">
<path d="M47.5032 19.4424C46.2912 19.1784 44.8632 19.1544 43.3992 19.3056C40.476 19.6056 37.1544 20.6256 34.6776 22.1784C33.9072 22.6592 33.1965 23.2197 32.5554 23.8476C32.6046 24.0389 32.6487 24.2311 32.6874 24.4238M47.5032 19.4424L47.3967 19.9309M47.5032 19.4424L47.3968 19.9309C47.3968 19.9309 47.3967 19.9309 47.3967 19.9309M47.5032 19.4424C48.6816 19.6992 49.8672 20.2296 50.5296 21.2856C51.0785 22.1655 51.2068 23.3178 51.1252 24.4648L50.5519 25.1397M47.3967 19.9309C46.2527 19.6817 44.8813 19.6552 43.4506 19.803L43.4502 19.803C40.5902 20.0965 37.3448 21.0964 34.9432 22.602L34.9423 22.6026C34.1144 23.1193 33.3583 23.7319 32.6874 24.4238M47.3967 19.9309C48.5219 20.1761 49.5483 20.6626 50.1057 21.5507C50.643 22.4124 50.7343 23.6366 50.5804 24.9046L50.5519 25.1397M32.6874 24.4238C32.8147 25.057 32.8842 25.6959 32.8887 26.3285M32.6874 24.4238C32.3845 24.7362 32.0989 25.0648 31.832 25.4081M32.8887 26.3285L31.832 25.4081M32.8887 26.3285C33.6219 25.3743 34.5541 24.4956 35.6841 23.7875L35.6846 23.7872C37.8786 22.4157 40.9111 21.4716 43.5925 21.1939L43.5938 21.1937C44.9342 21.0585 46.1471 21.0919 47.1003 21.2986L47.1006 21.2986C48.0742 21.5102 48.6555 21.8767 48.9177 22.2939L48.918 22.2944C49.1997 22.7437 49.3311 23.5722 49.1925 24.7382L49.1924 24.7388C49.0559 25.8767 48.6751 27.2178 48.0791 28.5846C46.8804 31.3374 44.871 34.052 42.4331 35.394L42.4331 35.3941C39.6771 36.9106 37.2805 37.1141 35.3774 36.6282C34.6523 36.443 34.0043 36.1591 33.4407 35.8152C33.3341 35.9185 33.2283 36.0227 33.1233 36.1278L33.1229 36.1282C32.8509 36.3998 32.4965 36.5698 32.1186 36.614C34.5503 38.4055 38.4525 39.182 43.1076 36.6204M31.832 25.4081C31.9616 26.5336 31.8752 27.6346 31.5418 28.6413C31.4854 28.7761 31.4326 28.911 31.3833 29.0457L31.3831 29.0461C31.3667 29.0912 31.3506 29.1362 31.335 29.181C31.1038 29.7095 30.7976 30.2062 30.4113 30.6598C30.2563 30.8416 30.094 31.0166 29.9251 31.1844C29.9519 31.0951 29.9714 31.0032 29.9832 30.9095C30.0344 30.5041 29.9376 30.0949 29.7127 29.7563C29.8004 29.3808 29.9118 29.0041 30.0456 28.6302C30.1052 28.4951 30.1588 28.3564 30.2065 28.2145C30.6207 27.2041 31.1689 26.2609 31.832 25.4081ZM50.5519 25.1397C50.3751 26.3798 49.9649 27.7652 49.3634 29.1423L49.3632 29.1428C48.0946 32.0564 45.9137 35.0752 43.1076 36.6204M50.5519 25.1397L43.1076 36.6204M11.2595 21.6194L11.2598 21.6204C12.2422 24.6903 14.1641 27.8127 16.6346 29.6387C19.4589 31.7286 22.0539 32.4373 24.2056 32.2967C25.1274 32.2451 26.0303 32.019 26.8668 31.631C26.9092 31.6833 26.9515 31.7357 26.9935 31.7883L26.9985 31.7946L27.0038 31.8007C27.2599 32.1006 27.6113 32.301 27.9967 32.3701C27.9452 32.474 27.9045 32.583 27.8751 32.6954C27.8064 32.7319 27.7371 32.7675 27.6673 32.8022C26.6174 33.3241 25.4727 33.6281 24.3022 33.696L24.2987 33.6963C21.7515 33.8623 18.837 33.0131 15.8015 30.7693C13.035 28.7216 10.9707 25.316 9.92752 22.048C9.40504 20.4078 9.12949 18.7697 9.16386 17.316C9.19845 15.8748 9.54217 14.5351 10.3502 13.5867C11.1743 12.6197 12.4112 12.1728 13.7581 12.0566C15.1091 11.9431 16.6486 12.1535 18.2083 12.574L18.2085 12.574C21.3264 13.4128 24.6764 15.1413 27.0045 17.1229C29.3417 19.115 30.9235 21.5936 31.5663 24.0177L31.5664 24.018C31.5763 24.0554 31.586 24.0927 31.5955 24.1301C31.1778 24.5991 30.7945 25.0981 30.4488 25.6232C30.405 25.2175 30.327 24.8007 30.2145 24.376L30.2144 24.3757C29.6524 22.2592 28.2439 20.017 26.0953 18.1881C23.9376 16.3489 20.7767 14.7128 17.8446 13.922L17.844 13.9219C16.3798 13.5288 15.0133 13.3553 13.8759 13.4505L13.8749 13.4506C12.7363 13.5483 11.9158 13.9061 11.4161 14.4901L11.4153 14.491C10.8988 15.0977 10.5944 16.0712 10.5641 17.3472C10.5337 18.6101 10.7741 20.0918 11.2595 21.6194ZM27.7687 31.1565C27.7645 31.1512 27.7602 31.1459 27.756 31.1406C28.0358 30.9598 28.3028 30.76 28.5552 30.5428C28.5192 30.8197 28.4954 31.0963 28.4844 31.3711C28.4027 31.3939 28.3167 31.4018 28.2307 31.3937C28.0519 31.3768 27.8866 31.2918 27.7687 31.1565ZM28.213 29.4993C27.8793 29.8279 27.51 30.1181 27.1121 30.3647C25.7151 28.7386 24.1446 27.2685 22.428 25.9808L22.428 25.9808L20.7 24.6848C20.6265 24.6296 20.5645 24.5605 20.5177 24.4814C20.4708 24.4023 20.44 24.3148 20.427 24.2238C20.414 24.1328 20.4191 24.0401 20.4419 23.9511L19.9575 23.827L20.4419 23.9511C20.4647 23.862 20.5048 23.7783 20.56 23.7048C20.6152 23.6313 20.6842 23.5693 20.7633 23.5225C20.8425 23.4756 20.93 23.4448 21.021 23.4318C21.112 23.4188 21.2047 23.4239 21.2937 23.4467C21.3828 23.4695 21.4665 23.5096 21.54 23.5648L23.2678 24.8606C23.2679 24.8607 23.2679 24.8607 23.268 24.8608C25.0807 26.2219 26.7399 27.7774 28.213 29.4993ZM28.82 46.3248V33.9499C28.958 34.3622 29.1399 34.7555 29.3698 35.1229L29.3698 35.123C29.6114 35.5087 29.8958 35.8846 30.22 36.2427V46.3248C30.22 46.5104 30.1462 46.6885 30.015 46.8198C29.8837 46.951 29.7057 47.0248 29.52 47.0248C29.3343 47.0248 29.1563 46.951 29.025 46.8198C28.8938 46.6885 28.82 46.5105 28.82 46.3248Z" fill="#FFE7E7" stroke="#FDFDFD"/>
</svg>
