<svg width="50" height="50" viewBox="0 0 50 50" fill="none" xmlns="http://www.w3.org/2000/svg">
<path d="M14.5833 29.1667C15.6884 29.1667 16.7482 28.7277 17.5296 27.9463C18.311 27.1649 18.75 26.1051 18.75 25C18.75 23.8949 18.311 22.8351 17.5296 22.0537C16.7482 21.2723 15.6884 20.8333 14.5833 20.8333C13.4783 20.8333 12.4185 21.2723 11.6371 22.0537C10.8557 22.8351 10.4167 23.8949 10.4167 25C10.4167 26.1051 10.8557 27.1649 11.6371 27.9463C12.4185 28.7277 13.4783 29.1667 14.5833 29.1667ZM29.1667 25C29.1667 26.1051 28.7277 27.1649 27.9463 27.9463C27.1649 28.7277 26.1051 29.1667 25 29.1667C23.8949 29.1667 22.8351 28.7277 22.0537 27.9463C21.2723 27.1649 20.8333 26.1051 20.8333 25C20.8333 23.8949 21.2723 22.8351 22.0537 22.0537C22.8351 21.2723 23.8949 20.8333 25 20.8333C26.1051 20.8333 27.1649 21.2723 27.9463 22.0537C28.7277 22.8351 29.1667 23.8949 29.1667 25ZM35.4167 29.1667C36.5217 29.1667 37.5815 28.7277 38.3629 27.9463C39.1443 27.1649 39.5833 26.1051 39.5833 25C39.5833 23.8949 39.1443 22.8351 38.3629 22.0537C37.5815 21.2723 36.5217 20.8333 35.4167 20.8333C34.3116 20.8333 33.2518 21.2723 32.4704 22.0537C31.689 22.8351 31.25 23.8949 31.25 25C31.25 26.1051 31.689 27.1649 32.4704 27.9463C33.2518 28.7277 34.3116 29.1667 35.4167 29.1667Z" fill="url(#paint0_linear_145_1377)"/>
<path fill-rule="evenodd" clip-rule="evenodd" d="M50 25C50 38.8062 38.8062 50 25 50C11.1937 50 0 38.8062 0 25C0 11.1937 11.1937 0 25 0C38.8062 0 50 11.1937 50 25ZM45.8333 25C45.8333 36.5062 36.5062 45.8333 25 45.8333C13.4937 45.8333 4.16667 36.5062 4.16667 25C4.16667 13.4937 13.4937 4.16667 25 4.16667C36.5062 4.16667 45.8333 13.4937 45.8333 25Z" fill="url(#paint1_linear_145_1377)"/>
<defs>
<linearGradient id="paint0_linear_145_1377" x1="25" y1="0" x2="25" y2="50" gradientUnits="userSpaceOnUse">
<stop stop-color="#7431FB"/>
<stop offset="0.557292" stop-color="#28002E"/>
<stop offset="1" stop-color="#FA01FF"/>
</linearGradient>
<linearGradient id="paint1_linear_145_1377" x1="25" y1="0" x2="25" y2="50" gradientUnits="userSpaceOnUse">
<stop stop-color="#7431FB"/>
<stop offset="0.557292" stop-color="#28002E"/>
<stop offset="1" stop-color="#FA01FF"/>
</linearGradient>
</defs>
</svg>
